<svg xmlns="http://www.w3.org/2000/svg" viewBox="0 0 727 80"><path fill="#0000cd" d="M301.453 0v80h51.893V66h-36.724V46h33.53V32.4h-33.53V14h36.724V0zm-63.056 12.918H227.22v26.96h11.177c8.745 0 15.169-4.24 15.169-13.483 0-9.595-6.424-13.477-15.169-13.477m.799 39.882H227.22V80h-15.168V0h27.144c17.023 0 30.337 7.727 30.337 26.4 0 18.4-13.412 26.4-30.337 26.4M485.079 0v14h18.761v52h-18.761v14h52.691V66h-18.761V14h18.761V0zm-50.888 24.8c0 9.638-5.589 12.678-15.169 12.678h-12.774v-24.56h12.774c10.397.004 15.169 3.882 15.169 11.882m15.967 0c0-18.673-12.774-24.8-29.539-24.8H391.08v80h15.168V50.4h12.774q1.05-.001 2.085-.038L436.562 80h16.808l-17.146-32.81c8.341-3.712 13.934-10.846 13.934-22.39m154.166-10.607 10.914 35.285h-21.832zM594.345 0l-26.346 80h15.967l5.443-17.6h29.826l5.443 17.6h15.967L614.299 0zm80.544 0v80h52.025V66h-36.856V0zM151.908 0l-19.161 47.04L113.587 0H92.031v80h14.371V20.188L124.764 62.4h15.967l18.362-42.212V80h14.37V0zM0 0v14h18.761v52H0v14h52.691V66H33.93V14h18.761V0z"/></svg>