<svg xmlns="http://www.w3.org/2000/svg" viewBox="0 0 590 366"><path fill="#48ff9b" d="M88.9 250.6c13.1 0 28.2-2.4 38.1-4.8V201c-10.7-1.6-26.2-3.2-38.5-3.2-29.7 0-41.6 9.9-41.6 26.2 0 18.7 17.8 26.6 42 26.6m1.6-174.9c49.2 0 82.5 24.6 82.5 80.5V272c0 3.2-1.6 5.6-4.4 6.7-20.6 6.3-50.4 11.9-79.7 11.9-46 0-88.4-16.7-88.4-66.2 0-43.2 36.1-63.4 86.8-63.4 13.1 0 27.8 1.6 39.7 3.2v-7.5c0-28.2-10.3-40-39.7-40-19.8 0-38.1 5.2-50.8 12.7-2.8 2-5.9 1.6-7.9-1.6l-15.9-24.2c-2-3.2-2-5.2 0-6.7 19.1-13.2 45.7-21.2 77.8-21.2m146.6-23c-14.7 0-26.2-11.5-26.2-26.2 0-15.1 11.5-25.8 26.2-25.8 15.1 0 25.8 10.7 25.8 25.8 0 14.7-10.7 26.2-25.8 26.2m-17.4 233.2c-3.6 0-5.9-2-5.9-5.9V86.1c0-3.6 2.4-5.6 5.9-5.6h34.5c3.6 0 5.6 2 5.6 5.6V280c0 4-2 5.9-5.6 5.9z"/><path d="M367.8 290.7c-42.8 0-66.2-28.6-66.2-76.9V8.3c0-4 2-5.9 5.9-5.9h34.1c4 0 5.9 2 5.9 5.9v203.8c0 26.2 8.3 36.5 26.2 36.5 4.8 0 9.9-.4 15.1-.8 4 0 5.9 2 5.9 5.9V283c0 3.2-1.2 5.9-4.4 6.3-6.6 1-14.5 1.4-22.5 1.4M543.5 86c0-3.6 2-5.6 5.9-5.6h34.1c4 0 5.9 2 5.9 5.6v186.8c0 61.1-27.8 92.4-88.4 92.4-33.7 0-57.1-7.9-77.7-25-3.2-2.4-3.2-4.8-1.2-7.9l17-24.2c2-3.2 4.8-4 7.5-2 15.1 10.3 32.5 18.2 53.9 18.2 27.4 0 44.8-11.9 43.2-51.6-12.7 4-27.8 7.1-42.4 7.1-41.2 0-84.9-26.2-84.9-80.9V86c0-3.6 2.4-5.6 5.9-5.6h34.5c3.6 0 5.6 2 5.6 5.6v111c0 30.5 21.4 41.2 45.2 41.2 13.5.4 27-3.2 35.7-7.9V86z"/></svg>