<svg xmlns="http://www.w3.org/2000/svg" viewBox="0 0 22 21.46"><path d="M 11 0 C 4.923 0 0 4.923 0 11 C 0 15.867 3.149 19.979 7.521 21.436 C 8.071 21.532 8.277 21.203 8.277 20.914 C 8.277 20.652 8.264 19.786 8.264 18.865 C 5.5 19.374 4.785 18.191 4.565 17.573 C 4.441 17.256 3.905 16.28 3.438 16.019 C 3.053 15.812 2.502 15.304 3.424 15.29 C 4.29 15.276 4.909 16.087 5.115 16.418 C 6.105 18.081 7.686 17.614 8.319 17.325 C 8.415 16.61 8.704 16.129 9.02 15.854 C 6.572 15.579 4.015 14.63 4.015 10.422 C 4.015 9.226 4.441 8.236 5.143 7.466 C 5.032 7.191 4.647 6.064 5.253 4.551 C 5.253 4.551 6.174 4.263 8.277 5.679 A 10.2 10.2 0 0 1 11.027 5.308 C 11.963 5.308 12.898 5.431 13.777 5.679 C 15.881 4.249 16.802 4.551 16.802 4.551 C 17.407 6.064 17.023 7.191 16.913 7.466 C 17.614 8.236 18.04 9.213 18.04 10.422 C 18.04 14.644 15.469 15.579 13.021 15.854 C 13.42 16.198 13.764 16.858 13.764 17.889 C 13.764 19.36 13.75 20.543 13.75 20.914 C 13.75 21.203 13.956 21.546 14.506 21.436 C 18.851 19.979 22 15.854 22 11 C 22 4.923 17.078 0 11 0"/></svg>