<svg xmlns="http://www.w3.org/2000/svg" viewBox="0 0 382 382"><path fill="#0077B7" d="M 347.445 0 H 34.555 C 15.471 0 0 15.471 0 34.555 V 347.444 C 0 366.529 15.471 382 34.555 382 H 347.444 C 366.529 382 382 366.529 382 347.444 V 34.555 C 382 15.471 366.529 0 347.445 0 M 118.207 329.844 C 118.207 335.398 113.705 339.9 108.151 339.9 H 65.345 C 59.791 339.9 55.289 335.398 55.289 329.844 V 150.403 C 55.289 144.849 59.791 140.347 65.345 140.347 H 108.151 C 113.705 140.347 118.207 144.849 118.207 150.403 Z M 86.748 123.432 C 64.289 123.432 46.082 105.225 46.082 82.766 S 64.289 42.1 86.748 42.1 S 127.414 60.307 127.414 82.766 S 109.208 123.432 86.748 123.432 M 341.91 330.654 A 9.247 9.247 0 0 1 332.664 339.9 H 286.73 A 9.247 9.247 0 0 1 277.484 330.654 V 246.486 C 277.484 233.93 281.167 191.465 244.671 191.465 C 216.362 191.465 210.62 220.531 209.467 233.575 V 330.654 A 9.246 9.246 0 0 1 200.221 339.9 H 155.795 A 9.247 9.247 0 0 1 146.549 330.654 V 149.593 A 9.247 9.247 0 0 1 155.795 140.347 H 200.221 A 9.247 9.247 0 0 1 209.467 149.593 V 165.248 C 219.964 149.495 235.564 137.336 268.779 137.336 C 342.331 137.336 341.91 206.052 341.91 243.808 Z"/></svg>