<svg xmlns="http://www.w3.org/2000/svg" viewBox="0 0 468.38 61.41"><path fill="#2e4588" d="M169.89 57.01v-6.65h2.25v6.67c0 1.54.73 2.3 1.9 2.3s1.9-.75 1.9-2.25v-6.72h2.24v6.61c0 3-1.65 4.45-4.17 4.45-2.51-.01-4.12-1.48-4.12-4.41m10.33-6.66h2.07l4.17 6.34v-6.34h2.2v10.88h-1.92l-4.31-6.57v6.57h-2.21zm10.71 0h2.25v10.88h-2.25zm3.7 0h2.44l2.3 7.49 2.3-7.49h2.38l-3.67 10.95h-2.09zm10.78 0h7.01v2.04h-4.77v2.35h4.2v2.03h-4.2v2.43h4.83v2.03h-7.07zm12.77 5.32c1.15 0 1.77-.65 1.77-1.63v-.02c0-1.09-.67-1.63-1.82-1.63h-1.62v3.28zm-3.91-5.32h4.09c1.26 0 2.27.36 2.96 1.04.59.59.92 1.45.92 2.52v.06c0 1.65-.82 2.69-2.02 3.22l2.32 4.04h-2.58l-2.01-3.57h-1.41v3.57h-2.25V50.35zm8.96 9.42 1.34-1.66c.73.64 1.62 1.23 2.7 1.23.87 0 1.4-.43 1.4-1.07v-.02c0-.54-.31-.89-1.87-1.48-1.93-.75-3.12-1.48-3.12-3.34v-.03c0-1.9 1.46-3.19 3.56-3.19 1.27 0 2.52.43 3.51 1.34l-1.26 1.71c-.68-.56-1.48-1.01-2.32-1.01-.78 0-1.26.39-1.26.95v.02c0 .62.37.92 2.07 1.62 1.9.75 2.92 1.55 2.92 3.25v.03c0 2.02-1.54 3.26-3.65 3.26a5.9 5.9 0 0 1-4.02-1.61m9.44-9.42h2.25v10.88h-2.25zm6.6 2.09h-2.74v-2.09h7.71v2.09h-2.73v8.79h-2.24zm10.83-5.15 1.9.86-1.94 1.45h-1.68zm-4.32 3.06h7.01v2.04h-4.77v2.35h4.2v2.04h-4.2v2.42h4.83v2.04h-7.07zm15.87 5.55c1.17 0 1.82-.73 1.82-1.74v-.01c0-1.14-.65-1.76-1.85-1.76h-1.23v3.51zm-3.52-5.55h3.62c2.44 0 3.98 1.41 3.98 3.73v.03c0 2.5-1.79 3.76-4.07 3.81h-1.27v3.31h-2.25V50.35zm13.46 6.53-1.18-3.54-1.2 3.54zm-2.22-6.59h2.14l3.9 10.94h-2.33l-.81-2.36h-3.75l-.79 2.36h-2.27zm11.33 5.38c1.15 0 1.77-.65 1.77-1.63v-.02c0-1.09-.67-1.63-1.82-1.63h-1.62v3.28zm-3.92-5.32h4.09c1.26 0 2.27.36 2.95 1.04.59.59.92 1.45.92 2.52v.06c0 1.65-.82 2.69-2.02 3.22l2.32 4.04h-2.58l-2.01-3.57h-1.41v3.57h-2.25V50.35zm9.84 0h2.25v10.88h-2.25zm3.73 9.42 1.34-1.66c.73.64 1.62 1.23 2.7 1.23.87 0 1.4-.43 1.4-1.07v-.02c0-.54-.31-.89-1.87-1.48-1.93-.75-3.12-1.48-3.12-3.34v-.03c0-1.9 1.46-3.19 3.56-3.19 1.27 0 2.52.43 3.51 1.34l-1.26 1.71c-.68-.56-1.48-1.01-2.32-1.01-.78 0-1.26.39-1.26.95v.02c0 .62.37.92 2.07 1.62 1.9.75 2.92 1.55 2.92 3.25v.03c0 2.02-1.54 3.26-3.65 3.26a5.88 5.88 0 0 1-4.02-1.61m77.63-40.98c0 6.33-4.46 10.9-11.63 10.9h-8.49v15.59h-4.3V8.01h12.79c7.17 0 11.63 4.51 11.63 10.78m-20.12-6.83v13.78h8.39c4.8 0 7.28-2.88 7.28-6.89 0-3.95-2.48-6.89-7.28-6.89zm47.69 1.75-3.14 2.43c-1.93-2.99-5.02-4.68-8.33-4.68-3.36 0-6.45 1.75-6.45 5.42 0 3.39 2.54 4.63 5.85 6.27l4.02 1.98c5.3 2.6 8.49 5.37 8.49 10.39 0 6.27-5.01 10.39-11.74 10.39-5.79 0-10.59-3.11-13.4-8.02l3.2-2.43c2.2 3.45 5.46 6.38 10.14 6.38 4.3 0 7.34-2.43 7.34-6.21 0-3.44-2.49-4.8-6.07-6.55l-4.08-1.98c-4.24-2.09-8.22-4.74-8.22-10 0-5.93 5.07-9.71 10.98-9.71 4.95-.01 9.15 2.65 11.41 6.32m8.08-5.7v37.26h21.56v-3.95h-17.26V8.01zm-84.11 0h2.4v37.25h-2.4zM62.62 38.83c-5.65 0-10.07-4.64-10.07-10.57 0-5.89 4.42-10.51 10.07-10.51 6.1 0 10.19 4.22 10.19 10.51.01 6.32-4.09 10.57-10.19 10.57m9.82-25.02c-2.67-2.1-6.42-3.33-10.32-3.33-10.03 0-17.59 7.67-17.59 17.84 0 10.13 7.56 17.78 17.59 17.78 4.84 0 8.13-1.7 10.23-3.45l-.05 2.51h8.1V11.43h-7.96zm38.97 17.81c0 .03.13 3.2-1.92 5.35-1.26 1.32-3.09 1.99-5.44 1.99s-4.18-.67-5.44-1.98c-2.05-2.14-1.93-5.33-1.93-5.39V11.43h-8.02V31.4c0 9.8 5.18 14.76 15.39 14.76s15.39-4.97 15.39-14.76V11.43h-8.02v20.19zm34.68 7.21c-5.21 0-10.82-3.29-10.82-10.51 0-7.26 5.61-10.57 10.82-10.57 5.49 0 9.63 4.55 9.63 10.57 0 6.09-4.05 10.51-9.63 10.51m-.12-28.35c-3.9 0-7.65 1.23-10.32 3.33v-2.39h-8.02v49.81h8.02V42.54c2.07 1.8 5.36 3.56 10.32 3.56 10.03 0 17.59-7.64 17.59-17.78 0-10.17-7.57-17.84-17.59-17.84m41.42-.06c-5.23 0-8.09 2.09-9.5 3.67V0l-8.02 1.34v43.82h8.02V26.25c0-5.91 4.27-8.56 8.5-8.56 4.24 0 6.67 2.75 6.67 7.55v19.91h8.02v-20.6c0-8.58-5.37-14.13-13.69-14.13M213.72-.96c-2.5 0-4.45 1.98-4.45 4.52 0 2.5 1.96 4.45 4.45 4.45 2.53 0 4.51-1.95 4.51-4.45.01-2.53-1.97-4.52-4.51-4.52m-3.69 12.32h8.02v33.79h-8.02zm34.93-.94c-5.23 0-8.09 2.09-9.5 3.67v-2.67h-8.02v33.73h8.02v-18.9c0-5.91 4.27-8.56 8.5-8.56 4.24 0 6.67 2.75 6.67 7.55v19.91h8.02v-20.6c.01-8.58-5.37-14.13-13.69-14.13m36.65 6.83c6.33 0 7.89 4.54 8.28 6.75H272.5c.51-1.87 2.46-6.75 9.11-6.75m16.39 9.5c0-7.89-5.44-16.27-15.51-16.27-10.35 0-18.15 7.64-18.15 17.78 0 10.5 7.65 17.84 18.59 17.84 9.63 0 13.28-3.36 13.44-3.5l.19-.18v-6.98h-.62c-.18 0-.29.06-.43.15-1.59.97-5.99 3.24-12.45 3.24-5.79 0-9.82-3.09-10.89-8.32H298zM15.58 37.55H8.09v-7.66h8.4c3.29 0 7.24-1.15 7.41-6.63 0-4.26-2.64-6.61-7.44-6.61H8.09V8.99h7.43c10.34 0 16.04 5.07 16.04 14.26-.37 11.82-8.9 14.3-15.98 14.3m.5-36.21H0v43.92h16.08c14.24 0 23.81-8.84 23.81-21.99 0-13.32-9.35-21.93-23.81-21.93m451.15 20.15c-.01-.02-.03-.04-.04-.06.02.02.03.04.04.06l-.09.07z"/><path fill="#2e4588" d="M468.74 22.45c-.79-3.41-2.51-6.47-4.9-8.88l4.9-4.9zm0 22.1-4.9-4.9c2.39-2.41 4.12-5.47 4.9-8.89zm-14.79.33c3.67-.68 6.97-2.43 9.55-4.91l4.91 4.91zm-13.92-3.5 10.38-7.58c-4.64.05-8.62 2.88-10.34 6.9l-.19.57c-.69-.5-1.34-1.05-1.96-1.63l3.76-3.76-.82 2.46c2.15-3.03 5.68-5.02 9.68-5.02 1.2 0 2.36.18 3.46.52-2.17-1.71-3.57-4.35-3.57-7.31 0-2.89 1.34-5.47 3.42-7.18l.06.18.06.2a8.85 8.85 0 0 1 5.05-2.01l-3.35 3.35h-1.14l-.42-1.33a8.82 8.82 0 0 0-3.22 6.8c0 4.55 3.48 8.3 7.92 8.78l.52.52c-.66-.03-1.3-.13-1.92-.29 1.07.77 2.01 1.7 2.77 2.77l-.81-2.43-.01-.02 3.78 3.78c-.62.59-1.28 1.14-1.97 1.64l-.23-.68a11.39 11.39 0 0 0-10.23-6.79l10.27 7.6a18.14 18.14 0 0 1-10.46 3.31c-3.89-.01-7.51-1.25-10.49-3.35m-7.35 3.5 4.9-4.91c2.58 2.48 5.88 4.23 9.55 4.91zm-.34-14.12a18.63 18.63 0 0 0 4.9 8.89l-4.9 4.9zm0-21.94 4.82 4.83c-2.35 2.4-4.05 5.43-4.82 8.8zm14.02-.34c-3.4.78-6.44 2.48-8.85 4.82l-4.82-4.82zm-2.33 20.35-2.02 6.04-4.43 4.44c-3.17-3.2-5.15-7.57-5.23-12.39h9.03zm-10.78-7.77 7.46 5.38h-8.37c.04-4.84 2-9.23 5.16-12.46l7.08 7.08zm17.32-12.58-4.02 12.58h-1.29l-7.42-7.42c3.28-3.19 7.76-5.16 12.7-5.16zm12.6 5.09-3.65 3.65c-2.1.02-4.03.75-5.58 1.94l-3.37-10.67c4.89 0 9.33 1.94 12.6 5.08m4.35 7.72-.28.2c-.1-.14-.2-.28-.31-.42v-.01c.11.14.21.28.31.42zl.31-.23h-.63a9.37 9.37 0 0 0-7.03-3.82l3.34-3.34c2.36 2.39 4.07 5.42 4.81 8.81-.23-.49-.49-.97-.8-1.42m-.33.14c.01.02.03.04.04.06l-.09.07.09-.07c-.01-.02-.03-.04-.04-.06m-6.77 5.01 6.66-4.84.05-.03a8.7 8.7 0 0 1 1.53 4.88h-8.24zm-4.07-5.38 3.37-3.37c2.79.02 5.27 1.34 6.88 3.37zm12.03 9.15c-.71 3.5-2.45 6.64-4.88 9.1l-3.47-3.48a9.36 9.36 0 0 0 8.35-5.62m-8.59 5.16c-.08 0-.16-.01-.24-.01l-.51-.51-1.99-5.96 2.71-1.97h8.88c-.2 4.69-4.09 8.45-8.85 8.45m8.46-26.89-4.75 4.75c-2.4-2.31-5.41-3.98-8.77-4.75zm-36.38-.47v37.34h37.35V8.01z"/></svg>