<svg xmlns="http://www.w3.org/2000/svg" viewBox="0 0 30 30"><path fill="#25D366" d="M 29.814 14.301 A 14.87 14.87 0 0 0 15.044 -0.023 H 14.972 A 14.87 14.87 0 0 0 1.912 21.979 L 0.598 29.847 A 0.114 0.114 0 0 0 0.711 29.977 H 0.734 L 8.516 28.246 A 14.9 14.9 0 0 0 14.959 29.711 H 15.384 A 14.864 14.864 0 0 0 29.814 14.301 M 15.31 27.125 H 14.959 A 12.3 12.3 0 0 1 9.294 25.75 L 8.896 25.542 L 3.618 26.789 L 4.592 21.449 L 4.366 21.067 A 12.29 12.29 0 0 1 14.619 2.56 H 14.977 A 12.287 12.287 0 0 1 15.323 27.129 Z"/><path fill="#25D366" d="M 9.79 7.667 A 1.37 1.37 0 0 0 8.812 8.102 C 8.458 8.466 7.467 9.34 7.41 11.177 C 7.353 13.013 8.636 14.83 8.815 15.085 S 11.269 19.307 15.015 20.916 C 17.215 21.864 18.181 22.027 18.806 22.027 C 19.064 22.027 19.259 22 19.462 21.988 C 20.148 21.946 21.697 21.153 22.035 20.29 C 22.372 19.428 22.395 18.674 22.306 18.523 S 21.973 18.263 21.605 18.071 C 21.237 17.878 19.432 16.913 19.093 16.777 A 1.2 1.2 0 0 0 18.693 16.673 A 0.55 0.55 0 0 0 18.248 16.938 C 17.947 17.314 17.255 18.13 17.022 18.365 A 0.55 0.55 0 0 1 16.615 18.555 A 1 1 0 0 1 16.207 18.445 A 9.5 9.5 0 0 1 13.268 16.485 A 11.3 11.3 0 0 1 11.272 13.829 C 11.067 13.449 11.272 13.253 11.459 13.075 S 11.846 12.652 12.039 12.439 Q 12.278 12.165 12.431 11.836 A 0.69 0.69 0 0 0 12.421 11.181 C 12.331 10.991 11.667 9.123 11.355 8.374 C 11.101 7.733 10.8 7.712 10.535 7.692 C 10.319 7.677 10.07 7.67 9.821 7.662 H 9.789"/></svg>