<svg xmlns="http://www.w3.org/2000/svg" viewBox="0 0 2048 600"><path fill="#B40F0A" d="m625 275 123 325H538l3-2 19-8 13-9 7-7 8-13 4-13 1-9v-9l-3-15-6-11-9-9-15-8-16-5-31-6-42-7-18-5-10-6-4-5-2-5v-8l3-8 7-7 10-5 12-3 16-1 19 2 13 4 9 6 7 8 3 7 1 7h49l-2-15-4-13-6-10-10-10-14-8-16-6-20-4-9-1h-40l-18 3-15 4-17 8-9 7-7 7-8 14-3 11v23l4 12 6 8 9 8 14 7 21 6 40 7 28 5 18 6 9 6 4 6 2 7v7l-3 8-6 7-14 7-14 3-9 1h-16l-19-3-13-5-9-7-6-9-3-11h-50l2 14 5 13 6 10 6 7 12 9 15 7 8 3v1h-70v-18l3-156 1-41-52 1-1 31-2 98v14l-4-2-13-19-11-16-13-19-11-16-16-23-15-22-17-25-1-1-54-1-2 93-2 87v35h-30l1-10 3-153 1-52H78l-2 71-2 111-1 33H0V408l6-26 6-17 9-19 10-16 12-16 14-15 12-12 11-9 17-13 17-11 23-13 21-10 25-10 27-9 31-8 25-5 29-4 22-2 20-1h37l39 3 35 5 33 7 28 8 25 9 23 10 17 8 21 12 21 14z"/><path fill="#B40F0A" d="M733 600h1314l-6-218-7-19-8-16-8-14-14-19-14-15-11-11-11-9-13-10-18-12-17-10-19-10-28-12-23-8-23-7-30-7-29-5-26-3-29-2h-38l-31 2-33 4-36 7-29 8-30 10-23 10-23 11-22 13-16 11-13 10-14 12-17 17-9 11-10 14-9 15-6 11-3-3-9-17-11-16-8-10-9-10-2-4h-2l-13-13-14-11-15-11-19-12-22-12-19-9-26-10-24-8-31-8-32-6-33-4-28-2h-38l-32 2-32 4-32 6-31 8-30 10-26 11-16 8-19 10-19 12-16 12-10 8Z"/><path d="M633 0h84l31 600H617Zm192 421h24l22 3 14 4 14 7 10 10 6 12 2 16 1 98 3 8 8 10-1 4-10 1h-42l-4-2-4-8v-6l-5 3-10 7-12 6-15 5-20 1-14-1-13-5-10-6-9-9-7-14-2-7v-18l2-9 6-12 9-9 14-8 17-5 50-8 11-4 5-5 1-2v-9l-4-6-6-3-9-2h-18l-11 2-6 4-4 5-4 11h-48l-1-1 1-9 5-15 7-10 4-5 13-9 12-5 12-3Z"/><path fill="#fff" d="M975 372h52l1 1v187h123l1 1v38H974V373zm194 0h50v228h42l-13-11-7-10-4-11-1-5v-16l3-12 5-9 6-7 10-7 15-6 25-5 33-5 11-4 5-4 2-4v-9l-4-6-5-3-9-2h-23l-10 3-6 4-4 8-2 7h-47l-1-4 4-16 8-14 9-9 12-7 15-5 20-3h29l20 3 13 4 10 5 10 8 6 9 3 8 2 13 1 102 4 7 6 7v6h42l-10-8-8-8-7-14-3-14-1-69v-25l1-31h49l1 31v75l2 15 5 8 6 5 11 3h15l12-3 9-5 7-8 4-13 1-108h49l1 163v6h25V461l1-30h49v23l5-5 10-9 12-7 14-4 7-1h21l15 3 12 5 11 8 6 7 6 12 3 12 1 123-1 2h43l-13-11-7-10-4-11-1-5v-16l3-12 5-9 6-7 10-7 15-6 25-5 33-5 11-4 5-4 2-4v-8l-3-6-6-4-9-2h-23l-10 3-6 4-4 8-2 7h-47l-1-4 4-16 8-14 9-9 12-7 15-5 20-3h29l20 3 13 4 10 5 10 8 7 11 3 10 1 9 1 102 4 7 6 7 1 4-1 2H0h73V385h57v215h24V385h59l7 9 12 18 16 23 15 22 11 16 13 19 11 16 14 20 2 1-1-3 1-59 1-50 1-31 1-1h52l-3 215h66l-18-9-10-7-7-6-8-11-5-11-3-11-1-9 1-1h50l3 9 4 8 5 6 10 6 13 4 15 2h16l16-2 12-4 10-6 6-9 1-4v-7l-3-9-5-5-8-5-16-5-34-6-39-7-21-7-12-7-10-10-5-10-2-7v-23l4-13 7-12 11-11 14-8 12-5 22-5 8-1h40l21 3 20 6 15 8 10 9 7 8 5 11 3 13v10h-49l-4-12-6-8-8-6-11-4-10-2-18-1-17 2-13 5-9 8-3 8v8l4 8 9 6 16 5 27 5 41 7 20 5 17 8 10 9 6 8 4 9 2 12v9l-2 13-5 13-8 11-7 7-14 9-17 8h628Z"/><path fill="#B40F0A" d="M1704 465h18l10 3 8 6 4 8 2 8v109l3 1h-99v-1h23V495l2-9 6-9 8-7 10-4zM211 452l3 3 16 24 8 11 8 12 22 32 15 22 11 16 13 19 5 7v2H206l1-2 2-103 1-40zm1715 68h3v19l-3 12-6 9-8 6-10 4-8 1h-11l-10-3-8-7-3-8 1-10 4-6 6-5 12-4 37-7zm-577 0h3v19l-3 12-6 9-6 5-8 4-12 2h-11l-10-3-8-7-3-8 1-10 4-6 6-5 12-4 37-7zm-487-5h6l-1 17-2 10-5 9-9 8-10 4-4 1h-18l-9-4-5-5-3-5v-13l4-6 5-4 10-4 26-5zm1065 68h2l4 12 4 5h-34l4-3 14-9zm-577 0h2l4 12 3 5h-33l4-3 16-10zm196-3h2v19l3 1h-28l5-4 6-4 9-8z"/></svg>