<svg xmlns="http://www.w3.org/2000/svg" version="1.0" viewBox="0 0 640 587">
  <g transform="translate(1.314 60.947)scale(.9988)">
    <path d="m393.902 117.156-23.995 3.885v9.322l23.995 3.884z" style="fill:#fff;fill-opacity:1;fill-rule:evenodd;stroke:#000;stroke-width:1.00119531px;stroke-linecap:butt;stroke-linejoin:miter;stroke-opacity:1"/>
    <path d="M425.408 135.432s-7.877 2.763-15.753 2.763-15.753-2.763-15.753-2.763v-19.461s7.877-2.762 15.753-2.762 15.753 2.762 15.753 2.762c2.075 2.807 1.709 16.532 0 19.461z" style="fill:#fff;fill-opacity:1;fill-rule:nonzero;stroke:#000;stroke-width:1.00119483;stroke-linecap:butt;stroke-linejoin:round;stroke-miterlimit:4;stroke-dashoffset:0;stroke-opacity:1"/>
    <rect width="35.735" height="2.597" rx="1.772" ry="1.772" x="379.747" y="124.403" style="opacity:1;fill:#fff;fill-opacity:1;fill-rule:nonzero;stroke:#000;stroke-width:1.00119519;stroke-linecap:butt;stroke-linejoin:round;stroke-miterlimit:4;stroke-dasharray:none;stroke-dashoffset:0;stroke-opacity:1"/>
  </g>
  <g transform="translate(-79.726 -23.887)scale(.9988)">
    <path d="m393.902 117.156-23.995 3.885v9.322l23.995 3.884z" style="fill:#fff;fill-opacity:1;fill-rule:evenodd;stroke:#000;stroke-width:1.00119531px;stroke-linecap:butt;stroke-linejoin:miter;stroke-opacity:1"/>
    <path d="M425.408 135.432s-7.877 2.763-15.753 2.763-15.753-2.763-15.753-2.763v-19.461s7.877-2.762 15.753-2.762 15.753 2.762 15.753 2.762c2.075 2.807 1.709 16.532 0 19.461z" style="fill:#fff;fill-opacity:1;fill-rule:nonzero;stroke:#000;stroke-width:1.00119483;stroke-linecap:butt;stroke-linejoin:round;stroke-miterlimit:4;stroke-dashoffset:0;stroke-opacity:1"/>
    <rect width="35.735" height="2.597" rx="1.772" ry="1.772" x="379.747" y="124.403" style="opacity:1;fill:#fff;fill-opacity:1;fill-rule:nonzero;stroke:#000;stroke-width:1.00119519;stroke-linecap:butt;stroke-linejoin:round;stroke-miterlimit:4;stroke-dasharray:none;stroke-dashoffset:0;stroke-opacity:1"/>
  </g>
  <path d="m322.888 265.012-29.284-90.524-83.396-137.077L187.88 7.58l33.02-.69c2.299 0 5.817.368 6.897 1.466l227.688 257.776z" style="fill:#fff;fill-opacity:1;fill-rule:evenodd;stroke:#000;stroke-width:1.00000083px;stroke-linecap:butt;stroke-linejoin:miter;stroke-opacity:1"/>
  <path d="M177.777 1.113h15.24l19.02 5.974c-3.902 1.951-23.653 1.463-23.653 1.463z" style="fill:#fff;fill-opacity:1;fill-rule:evenodd;stroke:#000;stroke-width:1.00000083px;stroke-linecap:butt;stroke-linejoin:miter;stroke-opacity:1"/>
  <path d="M210.879 38.787h8.84l40.356 58.828h-13.229m3.81 6.188h6.157l49.91 70.643m-5.905.086L255.9 103.838" style="fill:none;fill-opacity:.75;fill-rule:evenodd;stroke:#000;stroke-width:.50000042;stroke-linecap:butt;stroke-linejoin:miter;stroke-miterlimit:4;stroke-dasharray:none;stroke-opacity:1"/>
  <path d="m265.298 115.735 7.199-6.38 40.089 57.461-7.673 5.087m-2.104-19.117-6.95 6.279m-4.328-22.556-6.95 6.462m-3.048-20.727-6.766 6.767m18.806 45.508h20.636v15.941h-15.454m4.908-.022 24.226 74.704m-14.778-74.682 24.324 74.678m-9.205-28.348 11.095-3.535-12.314-38.162-11.4 2.865m6.401 19.874 11.46-2.56" style="fill:none;fill-opacity:.75;fill-rule:evenodd;stroke:#000;stroke-width:.50000042;stroke-linecap:butt;stroke-linejoin:miter;stroke-miterlimit:4;stroke-dasharray:none;stroke-opacity:1"/>
  <g  fill="#494eef" transform="translate(-79.726 -23.887)scale(.9988)">
    <rect width="10.444" height="3.841" rx="1.772" ry="1.772" x="432.96" y="259.681" />
    <rect width="10.444" height="3.841" rx="1.772" ry="1.772" x="419.236" y="259.681" />
    <rect width="10.444" height="3.841" rx="1.772" ry="1.772" x="432.96" y="269.133" />
    <rect width="10.444" height="3.841" rx="1.772" ry="1.772" x="419.236" y="269.133" />
  </g>
  <g transform="matrix(.9988 0 0 -.9988 1.314 526.667)">
    <path d="m393.902 117.156-23.995 3.885v9.322l23.995 3.884z" style="fill:#fff;fill-opacity:1;fill-rule:evenodd;stroke:#000;stroke-width:1.00119531px;stroke-linecap:butt;stroke-linejoin:miter;stroke-opacity:1"/>
    <path d="M425.408 135.432s-7.877 2.763-15.753 2.763-15.753-2.763-15.753-2.763v-19.461s7.877-2.762 15.753-2.762 15.753 2.762 15.753 2.762c2.075 2.807 1.709 16.532 0 19.461z" style="fill:#fff;fill-opacity:1;fill-rule:nonzero;stroke:#000;stroke-width:1.00119483;stroke-linecap:butt;stroke-linejoin:round;stroke-miterlimit:4;stroke-dashoffset:0;stroke-opacity:1"/>
    <rect width="35.735" height="2.597" rx="1.772" ry="1.772" x="379.747" y="124.403" style="opacity:1;fill:#fff;fill-opacity:1;fill-rule:nonzero;stroke:#000;stroke-width:1.00119519;stroke-linecap:butt;stroke-linejoin:round;stroke-miterlimit:4;stroke-dasharray:none;stroke-dashoffset:0;stroke-opacity:1"/>
  </g>
  <g transform="matrix(.9988 0 0 -.9988 -79.726 611.5)">
    <path d="m393.902 117.156-23.995 3.885v9.322l23.995 3.884z" style="fill:#fff;fill-opacity:1;fill-rule:evenodd;stroke:#000;stroke-width:1.00119531px;stroke-linecap:butt;stroke-linejoin:miter;stroke-opacity:1"/>
    <path d="M425.408 135.432s-7.877 2.763-15.753 2.763-15.753-2.763-15.753-2.763v-19.461s7.877-2.762 15.753-2.762 15.753 2.762 15.753 2.762c2.075 2.807 1.709 16.532 0 19.461z" style="fill:#fff;fill-opacity:1;fill-rule:nonzero;stroke:#000;stroke-width:1.00119483;stroke-linecap:butt;stroke-linejoin:round;stroke-miterlimit:4;stroke-dashoffset:0;stroke-opacity:1"/>
    <rect width="35.735" height="2.597" rx="1.772" ry="1.772" x="379.747" y="124.403" style="opacity:1;fill:#fff;fill-opacity:1;fill-rule:nonzero;stroke:#000;stroke-width:1.00119519;stroke-linecap:butt;stroke-linejoin:round;stroke-miterlimit:4;stroke-dasharray:none;stroke-dashoffset:0;stroke-opacity:1"/>
  </g>
  <path d="m403.095 289.244-29.32-90.632L290.28 61.37l-22.356-29.866 33.06-.69c2.3 0 5.823.368 6.904 1.467l227.96 258.084z" style="fill:#fff;fill-opacity:1;fill-rule:evenodd;stroke:#000;stroke-width:1.00119531px;stroke-linecap:butt;stroke-linejoin:miter;stroke-opacity:1" transform="matrix(.9988 0 0 -.9988 -79.726 611.5)"/>
  <path d="M257.81 25.03h15.258l19.043 5.981c-3.906 1.953-23.681 1.465-23.681 1.465z" style="fill:#fff;fill-opacity:1;fill-rule:evenodd;stroke:#000;stroke-width:1.00119531px;stroke-linecap:butt;stroke-linejoin:miter;stroke-opacity:1" transform="matrix(.9988 0 0 -.9988 -79.726 611.5)"/>
  <path d="M290.951 62.749h8.85l40.405 58.898h-13.244m3.814 6.195h6.165l49.97 70.727m-5.913.087-44.97-70.78" style="fill:none;fill-opacity:.75;fill-rule:evenodd;stroke:#000;stroke-width:.50059766;stroke-linecap:butt;stroke-linejoin:miter;stroke-miterlimit:4;stroke-dasharray:none;stroke-opacity:1" transform="matrix(.9988 0 0 -.9988 -79.726 611.5)"/>
  <path d="m345.436 139.788 7.207-6.387 40.137 57.53-7.682 5.092m-2.107-19.139-6.958 6.286m-4.333-22.583-6.958 6.47m-3.052-20.752-6.774 6.775m18.829 45.562h20.66v15.96h-15.472m4.913-.021 24.255 74.793m-14.795-74.771 24.353 74.767m-9.216-28.38 11.108-3.541-12.329-38.208-11.413 2.87m6.408 19.896 11.475-2.563" style="fill:none;fill-opacity:.75;fill-rule:evenodd;stroke:#000;stroke-width:.50059766;stroke-linecap:butt;stroke-linejoin:miter;stroke-miterlimit:4;stroke-dasharray:none;stroke-opacity:1" transform="matrix(.9988 0 0 -.9988 -79.726 611.5)"/>
  <g fill="#494eef" transform="matrix(.9988 0 0 -.9988 -79.726 611.5)">
    <rect width="10.444" height="3.841" rx="1.772" ry="1.772" x="432.96" y="259.681" />
    <rect width="10.444" height="3.841" rx="1.772" ry="1.772" x="419.236" y="259.681" />
    <rect width="10.444" height="3.841" rx="1.772" ry="1.772" x="432.96" y="269.133" />
    <rect width="10.444" height="3.841" rx="1.772" ry="1.772" x="419.236" y="269.133" />
  </g>
  <path d="m112.197 353.55-24.554 93.46h15.01c3.389 0 6.905-1.126 8.567-2.336l74.829-75.317c2.503-1.122 16.296-2.014 16.296-2.014z" style="fill:#fff;fill-opacity:1;fill-rule:evenodd;stroke:#000;stroke-width:1.00119531px;stroke-linecap:butt;stroke-linejoin:miter;stroke-opacity:1" transform="translate(-82.484 -51.475)scale(.9988)"/>
  <path d="M91.445 432.315h6.592l38.147-75.134" style="fill:none;fill-opacity:.75;fill-rule:evenodd;stroke:#000;stroke-width:.50059766;stroke-linecap:butt;stroke-linejoin:miter;stroke-miterlimit:4;stroke-dasharray:none;stroke-opacity:1" transform="translate(-82.484 -51.475)scale(.9988)"/>
  <path d="M103.835 385.41h14.282l2.838 1.892" style="fill:none;fill-opacity:.75;fill-rule:evenodd;stroke:#000;stroke-width:.50059766;stroke-linecap:butt;stroke-linejoin:miter;stroke-miterlimit:4;stroke-dasharray:none;stroke-opacity:1" transform="translate(-82.484 -51.475)scale(.9988)"/>
  <path d="m112.197 338.597-24.554-93.46h15.01c3.389 0 6.905 1.126 8.567 2.336l74.829 75.316c2.503 1.123 16.296 2.015 16.296 2.015z" style="fill:#fff;fill-opacity:1;fill-rule:evenodd;stroke:#000;stroke-width:1.00119531px;stroke-linecap:butt;stroke-linejoin:miter;stroke-opacity:1" transform="translate(-82.484 -51.475)scale(.9988)"/>
  <path d="M91.445 259.832h6.592l38.147 75.134" style="fill:none;fill-opacity:.75;fill-rule:evenodd;stroke:#000;stroke-width:.50059766;stroke-linecap:butt;stroke-linejoin:miter;stroke-miterlimit:4;stroke-dasharray:none;stroke-opacity:1" transform="translate(-82.484 -51.475)scale(.9988)"/>
  <path d="M103.835 306.737h14.282l2.838-1.892" style="fill:none;fill-opacity:.75;fill-rule:evenodd;stroke:#000;stroke-width:.50059766;stroke-linecap:butt;stroke-linejoin:miter;stroke-miterlimit:4;stroke-dasharray:none;stroke-opacity:1" transform="translate(-82.484 -51.475)scale(.9988)"/>
  <g transform="translate(-107.524 9.52)scale(.9988)" style="fill:#494eef;fill-opacity:1;stroke:#000;stroke-opacity:1">
    <rect width="10.444" height="3.841" rx="1.772" ry="1.772" x="432.96" y="259.681" style="opacity:1;fill:#494eef;fill-opacity:1;fill-rule:nonzero;stroke:#000;stroke-width:.50059766;stroke-linecap:butt;stroke-linejoin:round;stroke-miterlimit:4;stroke-dasharray:#fff;stroke-dashoffset:0;stroke-opacity:1"/>
    <rect width="10.444" height="3.841" rx="1.772" ry="1.772" x="419.236" y="259.681" style="opacity:1;fill:#494eef;fill-opacity:1;fill-rule:nonzero;stroke:#000;stroke-width:.50059766;stroke-linecap:butt;stroke-linejoin:round;stroke-miterlimit:4;stroke-dasharray:#fff;stroke-dashoffset:0;stroke-opacity:1"/>
    <rect width="10.444" height="3.841" rx="1.772" ry="1.772" x="432.96" y="269.133" style="opacity:1;fill:#494eef;fill-opacity:1;fill-rule:nonzero;stroke:#000;stroke-width:.50059766;stroke-linecap:butt;stroke-linejoin:round;stroke-miterlimit:4;stroke-dasharray:#fff;stroke-dashoffset:0;stroke-opacity:1"/>
    <rect width="10.444" height="3.841" rx="1.772" ry="1.772" x="419.236" y="269.133" style="opacity:1;fill:#494eef;fill-opacity:1;fill-rule:nonzero;stroke:#000;stroke-width:.50059766;stroke-linecap:butt;stroke-linejoin:round;stroke-miterlimit:4;stroke-dasharray:#fff;stroke-dashoffset:0;stroke-opacity:1"/>
  </g>
  <path d="M550.275 267.34v4.31h10.216v-3.879" style="fill:#fff;fill-opacity:.75;fill-rule:evenodd;stroke:#d73939;stroke-width:.50000042;stroke-linecap:butt;stroke-linejoin:miter;stroke-miterlimit:4;stroke-dasharray:#fff;stroke-opacity:1"/>
  <g transform="matrix(.9988 0 0 -.9988 -107.524 578.901)" style="fill:#494eef;fill-opacity:1;stroke:#000;stroke-opacity:1">
    <rect width="10.444" height="3.841" rx="1.772" ry="1.772" x="432.96" y="259.681" style="opacity:1;fill:#494eef;fill-opacity:1;fill-rule:nonzero;stroke:#000;stroke-width:.50059766;stroke-linecap:butt;stroke-linejoin:round;stroke-miterlimit:4;stroke-dasharray:#fff;stroke-dashoffset:0;stroke-opacity:1"/>
    <rect width="10.444" height="3.841" rx="1.772" ry="1.772" x="419.236" y="259.681" style="opacity:1;fill:#494eef;fill-opacity:1;fill-rule:nonzero;stroke:#000;stroke-width:.50059766;stroke-linecap:butt;stroke-linejoin:round;stroke-miterlimit:4;stroke-dasharray:#fff;stroke-dashoffset:0;stroke-opacity:1"/>
    <rect width="10.444" height="3.841" rx="1.772" ry="1.772" x="432.96" y="269.133" style="opacity:1;fill:#494eef;fill-opacity:1;fill-rule:nonzero;stroke:#000;stroke-width:.50059766;stroke-linecap:butt;stroke-linejoin:round;stroke-miterlimit:4;stroke-dasharray:#fff;stroke-dashoffset:0;stroke-opacity:1"/>
    <rect width="10.444" height="3.841" rx="1.772" ry="1.772" x="419.236" y="269.133" style="opacity:1;fill:#494eef;fill-opacity:1;fill-rule:nonzero;stroke:#000;stroke-width:.50059766;stroke-linecap:butt;stroke-linejoin:round;stroke-miterlimit:4;stroke-dasharray:#fff;stroke-dashoffset:0;stroke-opacity:1"/>
  </g>
  <path d="M16.106 293.704c0-5.162 7.478-6.665 13.778-7.803l88.272-14.753c26.66-4.592 58.804-7.56 78.519-7.56l279.5.623 90.78 3.767c14.022.854 72.545 12.314 72.545 26.208s-58.523 25.354-72.544 26.207l-90.781 3.767-279.5.622c-19.715 0-51.858-2.966-78.519-7.559L29.884 302.47c-6.3-1.137-13.778-2.641-13.778-7.803" style="fill:#00a1e4;fill-opacity:1;fill-rule:evenodd;stroke:#0e0e0e;stroke-width:1.00000083;stroke-linecap:butt;stroke-linejoin:miter;stroke-miterlimit:4;stroke-dasharray:#fff;stroke-opacity:1"/>
  <path d="M464.022 324.168v-3.75h9.906v3.719m76.347-3.055v-4.311h10.216v3.88" style="fill:#fff;fill-opacity:.75;fill-rule:evenodd;stroke:#000;stroke-width:.50000042;stroke-linecap:butt;stroke-linejoin:miter;stroke-miterlimit:4;stroke-dasharray:#fff;stroke-opacity:1"/>
  <path d="M629.563 284.158v20.106" style="fill:#fff;fill-opacity:.75;fill-rule:evenodd;stroke:#000;stroke-width:.50000042;stroke-linecap:butt;stroke-linejoin:miter;stroke-miterlimit:4;stroke-opacity:1"/>
  <g fill="#494eef" transform="translate(-79.726 -24)scale(.9988)">
    <rect width="10.444" height="3.841" rx="1.772" ry="1.772" x="646.678" y="312.852"/>
    <rect width="10.444" height="3.841" rx="1.772" ry="1.772" x="646.678" y="320.491"/>
  </g>
  <path d="M502.763 323.052v-13.29h28.164v12.07" style="fill:#fff;fill-opacity:.75;fill-rule:evenodd;stroke:#000;stroke-width:.50000042;stroke-linecap:butt;stroke-linejoin:miter;stroke-miterlimit:4;stroke-dasharray:#fff;stroke-opacity:1"/>
  <path d="M673.738 318.538h6.905c0-9.762-14.79-13.412-16.96-13.412v4.532c1.422 0 4.563.556 6.288 1.905 1.624 1.27 3.767 4.826 3.767 6.975z" style="fill:#fff;fill-opacity:.75;fill-rule:evenodd;stroke:#000;stroke-width:.50059766;stroke-linecap:butt;stroke-linejoin:miter;stroke-miterlimit:4;stroke-dasharray:#fff;stroke-opacity:1" transform="translate(-79.726 -23.887)scale(.9988)"/>
  <path d="M673.738 318.417h6.905c0 9.762-14.79 13.412-16.96 13.412v-4.532c1.422 0 4.563-.556 6.288-1.905 1.624-1.27 3.767-4.826 3.767-6.975zm-6.54-8.143 1.1-4.058m2.196 5.859 3.48-3.235m-6.776 17.84 1.1 4.06m2.196-5.86 3.48 3.235" style="fill:#fff;fill-opacity:.75;fill-rule:evenodd;stroke:#000;stroke-width:.50059766;stroke-linecap:butt;stroke-linejoin:miter;stroke-miterlimit:4;stroke-dasharray:#fff;stroke-opacity:1" transform="translate(-79.726 -23.887)scale(.9988)"/>
  <path d="M264.846 263.762v3.169h10.216v-3.104m-142.23 5.022v3.664l9.57-1.681v-3.19" style="fill:#fff;fill-opacity:.75;fill-rule:evenodd;stroke:#0e0e0e;stroke-width:.50000042;stroke-linecap:butt;stroke-linejoin:miter;stroke-miterlimit:4;stroke-dasharray:#fff;stroke-opacity:1"/>
  <path d="M264.846 324.66v-3.169h10.216v3.104m-142.23-5.022v-3.664l9.57 1.68v3.19m48.238 3.919v-7.01h11.704v7.01m16.094 0v-13.595h24.811v13.534" style="fill:#fff;fill-opacity:.75;fill-rule:evenodd;stroke:#000;stroke-width:.50000042;stroke-linecap:butt;stroke-linejoin:miter;stroke-miterlimit:4;stroke-dasharray:#fff;stroke-opacity:1"/>
  <path d="M83.084 345.379c0-.92 77.792-7.941 108.153-7.941 30.274 0 39.184 5.719 39.184 7.999s-8.91 7.998-39.184 7.998c-30.361 0-108.153-7.015-108.153-8.056z" style="fill:#fff;fill-opacity:1;fill-rule:evenodd;stroke:#000;stroke-width:1.00119531px;stroke-linecap:butt;stroke-linejoin:round;stroke-opacity:1" transform="translate(-82.484 -51.475)scale(.9988)"/>
  <path d="M113.02 342.198c.794.885.886 1.892.886 3.239s-.092 2.353-.885 3.238" style="fill:#fff;fill-opacity:1;fill-rule:evenodd;stroke:#000;stroke-width:.50059766;stroke-linecap:butt;stroke-linejoin:miter;stroke-miterlimit:4;stroke-dasharray:#fff;stroke-opacity:1" transform="translate(-82.484 -51.475)scale(.9988)"/>
  <g fill="#494eef" transform="translate(-107.45 8.357)scale(.9988)">
    <rect width="10.444" height="3.841" rx="1.772" ry="1.772" x="432.96" y="259.681" />
    <rect width="10.444" height="3.841" rx="1.772" ry="1.772" x="419.236" y="259.681" />
    <rect width="10.444" height="3.841" rx="1.772" ry="1.772" x="432.96" y="269.133" />
    <rect width="10.444" height="3.841" rx="1.772" ry="1.772" x="419.236" y="269.133" />
  </g>
  <path d="M464.022 264.254v3.75h9.906v-3.72" style="fill:#fff;fill-opacity:.75;fill-rule:evenodd;stroke:#0e0e0e;stroke-width:.50000042;stroke-linecap:butt;stroke-linejoin:miter;stroke-miterlimit:4;stroke-dasharray:#fff;stroke-opacity:1"/>
  <g fill="#494eef" transform="translate(-107.45 48.154)scale(.9988)">
    <rect width="10.444" height="3.841" rx="1.772" ry="1.772" x="432.96" y="259.681" />
    <rect width="10.444" height="3.841" rx="1.772" ry="1.772" x="419.236" y="259.681" />
    <rect width="10.444" height="3.841" rx="1.772" ry="1.772" x="432.96" y="269.133" />
    <rect width="10.444" height="3.841" rx="1.772" ry="1.772" x="419.236" y="269.133" />
  </g>
</svg>